<svg width="19" height="19" viewBox="0 0 19 19" fill="none" xmlns="http://www.w3.org/2000/svg">
<path d="M5.13143 14.7595C3.94501 14.7595 2.88967 13.8779 2.50645 12.5654L2.48053 12.4665C2.39016 12.1189 2.3523 11.8266 2.3523 11.5341V5.66992L0.554409 12.635C0.323176 13.6594 0.850099 14.7215 1.73418 15.0045L13.1939 18.5663C13.3369 18.6093 13.48 18.6299 13.6208 18.6299C14.3589 18.6299 15.0333 18.0614 15.2224 17.2236L15.89 14.7595H5.13143Z" fill="#6E64D6"/>
<path d="M6.97994 5.67018C7.8734 5.67018 8.59986 4.9436 8.59986 4.05018C8.59986 3.15675 7.8734 2.43018 6.97994 2.43018C6.08647 2.43018 5.35986 3.15675 5.35986 4.05018C5.35986 4.9436 6.08647 5.67018 6.97994 5.67018Z" fill="#6E64D6"/>
<path fill-rule="evenodd" clip-rule="evenodd" d="M4.85387 0H16.3963C17.4567 0 18.3202 0.965674 18.3202 2.15165V11.6183C18.3202 12.8043 17.4567 13.77 16.3963 13.77H4.85387C3.79361 13.77 2.93018 12.8043 2.93018 11.6183V2.15165C2.93018 0.965674 3.79361 0 4.85387 0ZM16.3963 1.72129H4.85387C4.64154 1.72129 4.46922 1.91401 4.46922 2.15165V10.2749L6.59299 7.90047C7.11855 7.31189 7.97507 7.31189 8.50133 7.90047L9.43239 8.93926L12.2904 5.10273C12.5458 4.76014 12.9198 4.56221 13.3184 4.55969C13.7193 4.56993 14.0925 4.75068 14.3503 5.08886L16.7811 8.26118V2.15165C16.7811 1.91401 16.6088 1.72129 16.3963 1.72129Z" fill="#6E64D6"/>
</svg>
