<svg width="23" height="25" viewBox="0 0 23 25" fill="none" xmlns="http://www.w3.org/2000/svg">
<path fill-rule="evenodd" clip-rule="evenodd" d="M5.47293 10.1098V23.5872H2.57833C2.57833 23.5872 1.91699 23.5617 1.47127 23.0459C1.02555 22.53 1.00003 21.8399 1.00003 21.8399L1.00005 11.6136C1.00005 11.6136 0.997304 11.0631 1.47127 10.5792C1.94524 10.0954 2.43089 10.1098 2.43089 10.1098H5.47293Z" stroke="black" stroke-width="1.5"/>
<path fill-rule="evenodd" clip-rule="evenodd" d="M5.87158 23.5869L6.77024 23.5703L17.0609 23.3791C17.0609 23.3791 17.7972 23.368 18.4752 22.7007C19.1532 22.0335 19.3308 21.4643 19.3308 21.4643L21.5387 13.5242C21.5387 13.5242 21.7206 12.0275 20.967 11.0688C20.2134 10.1101 19.1532 10.0697 19.1532 10.0697H13.7052C13.7052 10.0697 13.266 10.0697 12.8875 9.88559C12.5089 9.70143 12.481 9.15272 12.481 9.15272C12.481 9.15272 12.6156 4.29051 12.2434 2.94164C11.7857 1.28284 10.5268 0.937897 9.91126 1.00851C8.23718 1.20057 7.55981 3.42482 7.55981 3.42482L5.87158 9.88559L5.87158 23.5869Z" stroke="black" stroke-width="1.5"/>
</svg>
