<svg width="16" height="16" viewBox="0 0 16 16" fill="none" xmlns="http://www.w3.org/2000/svg">
<path fill-rule="evenodd" clip-rule="evenodd" d="M0 7.65C0 3.42502 3.42502 0 7.65 0C11.8731 0.00451445 15.2955 3.42691 15.3 7.65C15.3 11.875 11.875 15.3 7.65 15.3C3.42502 15.3 0 11.875 0 7.65ZM10.6264 8.13906C10.7327 8.08611 10.8188 7.99998 10.8717 7.89375C11.0063 7.62365 10.8965 7.29557 10.6264 7.16097L6.25497 4.97524C6.17906 4.9373 6.09533 4.91758 6.01046 4.91761C5.70866 4.91777 5.46414 5.16251 5.46427 5.4643V9.83573C5.46379 9.9215 5.48355 10.0062 5.5219 10.083C5.65682 10.3529 5.985 10.4624 6.25497 10.3275L10.6264 8.14179V8.13906Z" fill="#D44848"/>
</svg>
