<svg width="129" height="129" viewBox="0 0 129 129" fill="none" xmlns="http://www.w3.org/2000/svg">
<path fill-rule="evenodd" clip-rule="evenodd" d="M0.404297 64.0195C0.404297 28.6733 29.0581 0.0195312 64.4043 0.0195312C99.735 0.0572992 128.367 28.6891 128.404 64.0195C128.404 99.3657 99.7505 128.02 64.4043 128.02C29.0581 128.02 0.404297 99.3657 0.404297 64.0195ZM89.3095 68.1101C90.1985 67.667 90.9188 66.9465 91.3618 66.0577C92.4882 63.7981 91.5692 61.0534 89.3095 59.9273L52.7381 41.6415C52.103 41.324 51.4026 41.159 50.6925 41.1593C48.1677 41.1607 46.122 43.2082 46.1231 45.733V82.3044C46.1191 83.022 46.2844 83.7307 46.6053 84.3728C47.734 86.6313 50.4796 87.5471 52.7381 86.4187L89.3095 68.1328V68.1101Z" fill="#3A3A3A"/>
</svg>
